<svg version="1.1" xmlns="http://www.w3.org/2000/svg" xmlns:xlink="http://www.w3.org/1999/xlink" width="35.53175" height="34.09236" viewBox="0,0,35.53175,34.09236"><g transform="translate(-218.29017,-158.46897)"><g data-paper-data="{&quot;isPaintingLayer&quot;:true}" fill="none" fill-rule="nonzero" stroke="#000000" stroke-width="none" stroke-linecap="none" stroke-linejoin="miter" stroke-miterlimit="10" stroke-dasharray="" stroke-dashoffset="0" font-family="none" font-weight="none" font-size="none" text-anchor="none" style="mix-blend-mode: normal"><path d="M219.3136,159.4924h33.4849v32.0455h-33.4849z" id="ID0.6962728025391698" fill="#b2b2b2" stroke-width="2.04686" stroke-linecap="butt"/><path d="M229.914,178.31913l2.00284,7.47728l6.9432,0.13352l2.67045,-8.27842l0.13353,-4.80683c0,0 -0.36564,-0.44595 -0.68513,-0.47499c-0.25371,-0.02307 -0.78363,0.34147 -0.78363,0.34147v-0.93466c0,0 -0.17412,-1.21185 -0.54194,-1.30381c-0.25748,-0.06437 -1.06033,0.90324 -1.06033,0.90324v-1.20171c0,0 -0.36507,-0.84268 -0.68419,-0.86927c-0.30618,-0.02552 -0.91808,0.73575 -0.91808,0.73575l-0.13352,-6.00853c0,0 -0.49182,-0.44528 -0.80661,-0.47389c-0.25841,-0.02349 -0.66215,0.34037 -0.66215,0.34037l-1.60228,9.3466c0,0 -0.27155,2.93618 -1.72729,2.50802c-1.20183,-0.35348 -2.27839,-1.43984 -2.27839,-1.43984c0,0 -1.54736,0.30534 -1.76859,0.84262c-0.14353,0.34858 0.96745,1.69432 0.96745,1.69432z" data-paper-data="{&quot;origPos&quot;:null}" fill="none" stroke-width="1.5" stroke-linecap="round"/></g></g></svg>