<svg version="1.1" xmlns="http://www.w3.org/2000/svg" xmlns:xlink="http://www.w3.org/1999/xlink" width="615" height="564.5"><g transform="translate(60,98)"><g data-paper-data="{&quot;isPaintingLayer&quot;:true}" fill="none" fill-rule="nonzero" stroke="none" stroke-width="none" stroke-linecap="butt" stroke-linejoin="miter" stroke-miterlimit="10" stroke-dasharray="" stroke-dashoffset="0" font-family="none" font-weight="none" font-size="none" text-anchor="none" style="mix-blend-mode: normal"><path d="M4.0118,4.25h472.2267v351.3939h-472.2267z" data-paper-data="{&quot;origPos&quot;:null}" id="ID0.13009924488142133" fill="#995900" stroke="#663b00" stroke-width="8.20025"/><path d="M61,49.5h52v41h-52z" data-paper-data="{&quot;origPos&quot;:null}" id="ID0.35083413729444146" fill="none" stroke="#cc7700" stroke-width="2"/><path d="M9,9h52v41h-52z" data-paper-data="{&quot;origPos&quot;:null}" id="ID0.35083413729444146" fill="none" stroke="#cc7700" stroke-width="2"/><path d="M114,90.5h52v41h-52z" data-paper-data="{&quot;origPos&quot;:null}" id="ID0.35083413729444146" fill="none" stroke="#cc7700" stroke-width="2"/><path d="M218,171.5h52v41h-52z" data-paper-data="{&quot;origPos&quot;:null}" id="ID0.35083413729444146" fill="none" stroke="#cc7700" stroke-width="2"/><path d="M166,131h52v41h-52z" data-paper-data="{&quot;origPos&quot;:null}" id="ID0.35083413729444146" fill="none" stroke="#cc7700" stroke-width="2"/><path d="M271,212.5h52v41h-52z" data-paper-data="{&quot;origPos&quot;:null}" id="ID0.35083413729444146" fill="none" stroke="#cc7700" stroke-width="2"/><path d="M374,294.5h52v41h-52z" data-paper-data="{&quot;origPos&quot;:null}" id="ID0.35083413729444146" fill="none" stroke="#cc7700" stroke-width="2"/><path d="M322,254h52v41h-52z" data-paper-data="{&quot;origPos&quot;:null}" id="ID0.35083413729444146" fill="none" stroke="#cc7700" stroke-width="2"/><path d="M427,335.5h52v41h-52z" data-paper-data="{&quot;origPos&quot;:null}" id="ID0.35083413729444146" fill="none" stroke="#cc7700" stroke-width="2"/><path d="M-7,138.5h52v41h-52z" data-paper-data="{&quot;origPos&quot;:null}" id="ID0.35083413729444146" fill="none" stroke="#cc7700" stroke-width="2"/><path d="M-59,98h52v41h-52z" data-paper-data="{&quot;origPos&quot;:null}" id="ID0.35083413729444146" fill="none" stroke="#cc7700" stroke-width="2"/><path d="M46,179.5h52v41h-52z" data-paper-data="{&quot;origPos&quot;:null}" id="ID0.35083413729444146" fill="none" stroke="#cc7700" stroke-width="2"/><path d="M150,260.5h52v41h-52z" data-paper-data="{&quot;origPos&quot;:null}" id="ID0.35083413729444146" fill="none" stroke="#cc7700" stroke-width="2"/><path d="M98,220h52v41h-52z" data-paper-data="{&quot;origPos&quot;:null}" id="ID0.35083413729444146" fill="none" stroke="#cc7700" stroke-width="2"/><path d="M203,301.5h52v41h-52z" data-paper-data="{&quot;origPos&quot;:null}" id="ID0.35083413729444146" fill="none" stroke="#cc7700" stroke-width="2"/><path d="M306,383.5h52v41h-52z" data-paper-data="{&quot;origPos&quot;:null}" id="ID0.35083413729444146" fill="none" stroke="#cc7700" stroke-width="2"/><path d="M254,343h52v41h-52z" data-paper-data="{&quot;origPos&quot;:null}" id="ID0.35083413729444146" fill="none" stroke="#cc7700" stroke-width="2"/><path d="M359,424.5h52v41h-52z" data-paper-data="{&quot;origPos&quot;:null}" id="ID0.35083413729444146" fill="none" stroke="#cc7700" stroke-width="2"/><path d="M136,-56.5h52v41h-52z" data-paper-data="{&quot;origPos&quot;:null}" id="ID0.35083413729444146" fill="none" stroke="#cc7700" stroke-width="2"/><path d="M84,-97h52v41h-52z" data-paper-data="{&quot;origPos&quot;:null}" id="ID0.35083413729444146" fill="none" stroke="#cc7700" stroke-width="2"/><path d="M189,-15.5h52v41h-52z" data-paper-data="{&quot;origPos&quot;:null}" id="ID0.35083413729444146" fill="none" stroke="#cc7700" stroke-width="2"/><path d="M293,65.5h52v41h-52z" data-paper-data="{&quot;origPos&quot;:null}" id="ID0.35083413729444146" fill="none" stroke="#cc7700" stroke-width="2"/><path d="M241,25h52v41h-52z" data-paper-data="{&quot;origPos&quot;:null}" id="ID0.35083413729444146" fill="none" stroke="#cc7700" stroke-width="2"/><path d="M346,106.5h52v41h-52z" data-paper-data="{&quot;origPos&quot;:null}" id="ID0.35083413729444146" fill="none" stroke="#cc7700" stroke-width="2"/><path d="M449,188.5h52v41h-52z" data-paper-data="{&quot;origPos&quot;:null}" id="ID0.35083413729444146" fill="none" stroke="#cc7700" stroke-width="2"/><path d="M397,148h52v41h-52z" data-paper-data="{&quot;origPos&quot;:null}" id="ID0.35083413729444146" fill="none" stroke="#cc7700" stroke-width="2"/><path d="M502,229.5h52v41h-52z" data-paper-data="{&quot;origPos&quot;:null}" id="ID0.35083413729444146" fill="none" stroke="#cc7700" stroke-width="2"/><text transform="translate(150,94.16)" font-size="22" xml:space="preserve" data-paper-data="{&quot;origPos&quot;:null}" id="ID0.7544040130451322" fill="#ffff00" fill-rule="nonzero" stroke="none" stroke-width="1" stroke-linecap="butt" stroke-linejoin="miter" stroke-miterlimit="10" stroke-dasharray="" stroke-dashoffset="0" font-family="Curly" font-weight="400" text-anchor="start" style="mix-blend-mode: normal"><tspan x="0" dy="0">MEDIEVAL INTERFACE</tspan></text><g><text transform="translate(64.97506,60.35149) scale(1.29851,1.29851)" font-size="40" xml:space="preserve" data-paper-data="{&quot;origPos&quot;:null}" fill="#000000" fill-rule="nonzero" stroke="#000000" stroke-width="4" stroke-linecap="butt" stroke-linejoin="miter" stroke-miterlimit="10" stroke-dasharray="" stroke-dashoffset="0" font-family="Sans Serif" font-weight="normal" text-anchor="start" style="mix-blend-mode: normal"><tspan x="0" dy="0">T I L E C R A F T</tspan></text><text transform="translate(59.61451,60.35149) scale(1.29852,1.29852)" font-size="40" xml:space="preserve" data-paper-data="{&quot;origPos&quot;:null}" fill="#ffffff" fill-rule="nonzero" stroke="#ffffff" stroke-width="4" stroke-linecap="butt" stroke-linejoin="miter" stroke-miterlimit="10" stroke-dasharray="" stroke-dashoffset="0" font-family="Sans Serif" font-weight="normal" text-anchor="start" style="mix-blend-mode: normal"><tspan x="0" dy="0">T I L E C R A F T</tspan></text><path d="M52.46712,71.07257v-58.07256h389.53288v58.07256z" data-paper-data="{&quot;origPos&quot;:null}" fill="none" stroke="#000000" stroke-width="5"/><path d="M48,71.07257v-58.07256h389.53288v58.07256z" data-paper-data="{&quot;origPos&quot;:null}" fill="none" stroke="#ffffff" stroke-width="5"/></g></g></g></svg>