<svg version="1.1" xmlns="http://www.w3.org/2000/svg" xmlns:xlink="http://www.w3.org/1999/xlink" width="35.53176" height="34.09236" viewBox="0,0,35.53176,34.09236"><g transform="translate(-218.29017,-158.46897)"><g data-paper-data="{&quot;isPaintingLayer&quot;:true}" fill="none" fill-rule="nonzero" stroke="none" stroke-width="none" stroke-linecap="none" stroke-linejoin="miter" stroke-miterlimit="10" stroke-dasharray="" stroke-dashoffset="0" font-family="none" font-weight="none" font-size="none" text-anchor="none" style="mix-blend-mode: normal"><path d="M219.3136,159.4924h33.4849v32.0455h-33.4849z" id="ID0.6962728025391698" fill="#995900" stroke="#663b00" stroke-width="2.04686" stroke-linecap="butt"/><path d="M228.97935,176.85038c0,0 -1.11098,-1.34574 -0.96745,-1.69432c0.22123,-0.53728 1.76859,-0.84262 1.76859,-0.84262c0,0 1.07656,1.08636 2.27839,1.43984c1.45574,0.42816 1.72729,-2.50802 1.72729,-2.50802l1.60228,-9.3466c0,0 0.40374,-0.36387 0.66215,-0.34037c0.31479,0.02861 0.80661,0.47389 0.80661,0.47389l0.13352,6.00853c0,0 0.6119,-0.76127 0.91808,-0.73575c0.31912,0.02659 0.68419,0.86927 0.68419,0.86927v1.20171c0,0 0.80285,-0.96761 1.06033,-0.90324c0.36782,0.09196 0.54194,1.30381 0.54194,1.30381v0.93466c0,0 0.52992,-0.36454 0.78363,-0.34147c0.31949,0.02904 0.68513,0.47499 0.68513,0.47499l-0.13354,4.80683l-2.67044,8.27842l-6.9432,-0.13352l-2.00284,-7.47728z" data-paper-data="{&quot;origPos&quot;:null}" fill="none" stroke="#fcff00" stroke-width="1.5" stroke-linecap="round"/><g data-paper-data="{&quot;origPos&quot;:null}" fill="none" stroke="#fcff00" stroke-width="1.5"><path d="M222.70376,174.90784c0,-7.26009 5.96797,-13.14554 13.32983,-13.14554c7.36186,0 13.32983,5.88546 13.32983,13.14554c0,7.26009 -5.96796,13.14554 -13.32982,13.14554c-7.36186,0 -13.32983,-5.88546 -13.32983,-13.14554z" data-paper-data="{&quot;origPos&quot;:null}" stroke-linecap="butt"/><path d="M228.04468,164.29923l16.82388,19.89491" data-paper-data="{&quot;origPos&quot;:null}" stroke-linecap="round"/></g></g></g></svg>