<svg version="1.1" xmlns="http://www.w3.org/2000/svg" xmlns:xlink="http://www.w3.org/1999/xlink" width="480.42695" height="360.59415"><g transform="translate(0.08833,-0.14987)"><g data-paper-data="{&quot;isPaintingLayer&quot;:true}" fill="none" fill-rule="nonzero" stroke="none" stroke-width="none" stroke-linecap="butt" stroke-linejoin="miter" stroke-miterlimit="10" stroke-dasharray="" stroke-dashoffset="0" font-family="none" font-weight="none" font-size="none" text-anchor="none" style="mix-blend-mode: normal"><path d="M4.0118,4.25h472.2267v352.3939h-472.2267z" data-paper-data="{&quot;origPos&quot;:null}" id="ID0.13009924488142133" fill="#b2b2b2" stroke="#000000" stroke-width="8.20025"/><path d="M32,32h52v41h-52z" id="ID0.35083413729444146" fill="none" stroke="#7f7f7f" stroke-width="2"/><path d="M17,137.5h52v41h-52z" data-paper-data="{&quot;origPos&quot;:null}" id="ID0.35083413729444146" fill="none" stroke="#7f7f7f" stroke-width="2"/><path d="M53,73.5h52v41h-52z" data-paper-data="{&quot;origPos&quot;:null}" id="ID0.35083413729444146" fill="none" stroke="#7f7f7f" stroke-width="2"/><path d="M69,163.5h52v41h-52z" data-paper-data="{&quot;origPos&quot;:null}" id="ID0.35083413729444146" fill="none" stroke="#7f7f7f" stroke-width="2"/><path d="M45,205.5h52v41h-52z" data-paper-data="{&quot;origPos&quot;:null}" id="ID0.35083413729444146" fill="none" stroke="#7f7f7f" stroke-width="2"/><path d="M144,95.5h52v41h-52z" data-paper-data="{&quot;origPos&quot;:null}" id="ID0.35083413729444146" fill="none" stroke="#7f7f7f" stroke-width="2"/><path d="M197,78.5h52v41h-52z" data-paper-data="{&quot;origPos&quot;:null}" id="ID0.35083413729444146" fill="none" stroke="#7f7f7f" stroke-width="2"/><path d="M221,145.5h52v41h-52z" data-paper-data="{&quot;origPos&quot;:null}" id="ID0.35083413729444146" fill="none" stroke="#7f7f7f" stroke-width="2"/><path d="M169,160.5h52v41h-52z" data-paper-data="{&quot;origPos&quot;:null}" id="ID0.35083413729444146" fill="none" stroke="#7f7f7f" stroke-width="2"/><path d="M249,186.5h52v41h-52z" data-paper-data="{&quot;origPos&quot;:null}" id="ID0.35083413729444146" fill="none" stroke="#7f7f7f" stroke-width="2"/><path d="M310,102.5h52v41h-52z" data-paper-data="{&quot;origPos&quot;:null}" id="ID0.35083413729444146" fill="none" stroke="#7f7f7f" stroke-width="2"/><path d="M362,84.5h52v41h-52z" data-paper-data="{&quot;origPos&quot;:null}" id="ID0.35083413729444146" fill="none" stroke="#7f7f7f" stroke-width="2"/><path d="M362,125.5h52v41h-52z" data-paper-data="{&quot;origPos&quot;:null}" id="ID0.35083413729444146" fill="none" stroke="#7f7f7f" stroke-width="2"/><path d="M414,166.5h52v41h-52z" data-paper-data="{&quot;origPos&quot;:null}" id="ID0.35083413729444146" fill="none" stroke="#7f7f7f" stroke-width="2"/><path d="M395,207.5h52v41h-52z" data-paper-data="{&quot;origPos&quot;:null}" id="ID0.35083413729444146" fill="none" stroke="#7f7f7f" stroke-width="2"/><path d="M15,304.5h52v41h-52z" data-paper-data="{&quot;origPos&quot;:null}" id="ID0.35083413729444146" fill="none" stroke="#7f7f7f" stroke-width="2"/><path d="M67,285.5h52v41h-52z" data-paper-data="{&quot;origPos&quot;:null}" id="ID0.35083413729444146" fill="none" stroke="#7f7f7f" stroke-width="2"/><path d="M119,244.5h52v41h-52z" data-paper-data="{&quot;origPos&quot;:null}" id="ID0.35083413729444146" fill="none" stroke="#7f7f7f" stroke-width="2"/><path d="M119,285.5h52v41h-52z" data-paper-data="{&quot;origPos&quot;:null}" id="ID0.35083413729444146" fill="none" stroke="#7f7f7f" stroke-width="2"/><path d="M172,304.5h52v41h-52z" data-paper-data="{&quot;origPos&quot;:null}" id="ID0.35083413729444146" fill="none" stroke="#7f7f7f" stroke-width="2"/><path d="M301,265.5h52v41h-52z" data-paper-data="{&quot;origPos&quot;:null}" id="ID0.35083413729444146" fill="none" stroke="#7f7f7f" stroke-width="2"/><path d="M354,285.5h52v41h-52z" data-paper-data="{&quot;origPos&quot;:null}" id="ID0.35083413729444146" fill="none" stroke="#7f7f7f" stroke-width="2"/><g><text transform="translate(64.97506,60.35149) scale(1.29851,1.29851)" font-size="40" xml:space="preserve" data-paper-data="{&quot;origPos&quot;:null}" fill="#000000" fill-rule="nonzero" stroke="#000000" stroke-width="4" stroke-linecap="butt" stroke-linejoin="miter" stroke-miterlimit="10" stroke-dasharray="" stroke-dashoffset="0" font-family="Sans Serif" font-weight="normal" text-anchor="start" style="mix-blend-mode: normal"><tspan x="0" dy="0">T I L E C R A F T</tspan></text><text transform="translate(59.61451,60.35149) scale(1.29852,1.29852)" font-size="40" xml:space="preserve" data-paper-data="{&quot;origPos&quot;:null}" fill="#ffffff" fill-rule="nonzero" stroke="#ffffff" stroke-width="4" stroke-linecap="butt" stroke-linejoin="miter" stroke-miterlimit="10" stroke-dasharray="" stroke-dashoffset="0" font-family="Sans Serif" font-weight="normal" text-anchor="start" style="mix-blend-mode: normal"><tspan x="0" dy="0">T I L E C R A F T</tspan></text><path d="M52.46712,71.07257v-58.07256h389.53288v58.07256z" data-paper-data="{&quot;origPos&quot;:null}" fill="none" stroke="#000000" stroke-width="5"/><path d="M48,71.07257v-58.07256h389.53288v58.07256z" data-paper-data="{&quot;origPos&quot;:null}" fill="none" stroke="#ffffff" stroke-width="5"/></g></g></g></svg>